<svg width="665" height="190" viewBox="0 0 665 190" fill="none" xmlns="http://www.w3.org/2000/svg">
<rect x="0.244054" y="0.429525" width="55" height="55" rx="5.5" transform="matrix(1 0 -0.511893 0.859049 113.348 0.0605418)" stroke="#192937"/>
<rect x="0.244054" y="0.429525" width="55" height="55" rx="5.5" transform="matrix(1 0 -0.511893 0.859049 168.348 0.0605418)" stroke="#192937"/>
<rect x="0.244054" y="0.429525" width="55" height="55" rx="5.5" transform="matrix(1 0 -0.511893 0.859049 223.348 0.0605418)" stroke="#192937"/>
<rect x="0.244054" y="0.429525" width="55" height="55" rx="5.5" transform="matrix(1 0 -0.511893 0.859049 278.348 0.0605418)" stroke="#192937"/>
<rect x="0.244054" y="0.429525" width="55" height="55" rx="5.5" transform="matrix(1 0 -0.511893 0.859049 333.348 0.0605418)" stroke="#192937"/>
<rect x="0.244054" y="0.429525" width="55" height="55" rx="5.5" transform="matrix(1 0 -0.511893 0.859049 388.348 0.0605418)" stroke="#192937"/>
<rect x="0.244054" y="0.429525" width="55" height="55" rx="5.5" transform="matrix(1 0 -0.511893 0.859049 443.348 0.0605418)" stroke="#192937"/>
<rect x="0.244054" y="0.429525" width="55" height="55" rx="5.5" transform="matrix(1 0 -0.511893 0.859049 498.348 0.0605418)" stroke="#192937"/>
<rect x="0.244054" y="0.429525" width="55" height="55" rx="5.5" transform="matrix(1 0 -0.511893 0.859049 553.348 0.0605418)" stroke="#192937"/>
<rect x="0.244054" y="0.429525" width="55" height="55" rx="5.5" transform="matrix(1 0 -0.511893 0.859049 608.348 0.0605418)" stroke="#192937"/>
<rect x="0.244054" y="0.429525" width="55" height="55" rx="5.5" transform="matrix(1 0 -0.511893 0.859049 85.1939 47.3082)" stroke="#192937"/>
<rect x="0.244054" y="0.429525" width="55" height="55" rx="5.5" transform="matrix(1 0 -0.511893 0.859049 140.194 47.3082)" stroke="#192937"/>
<rect x="0.244054" y="0.429525" width="55" height="55" rx="5.5" transform="matrix(1 0 -0.511893 0.859049 195.194 47.3082)" stroke="#192937"/>
<rect x="0.244054" y="0.429525" width="55" height="55" rx="5.5" transform="matrix(1 0 -0.511893 0.859049 250.194 47.3082)" stroke="#192937"/>
<rect x="0.244054" y="0.429525" width="55" height="55" rx="5.5" transform="matrix(1 0 -0.511893 0.859049 305.194 47.3082)" stroke="#192937"/>
<rect x="0.244054" y="0.429525" width="55" height="55" rx="5.5" transform="matrix(1 0 -0.511893 0.859049 360.194 47.3082)" stroke="#192937"/>
<rect x="0.244054" y="0.429525" width="55" height="55" rx="5.5" transform="matrix(1 0 -0.511893 0.859049 415.194 47.3082)" stroke="#192937"/>
<rect x="0.244054" y="0.429525" width="55" height="55" rx="5.5" transform="matrix(1 0 -0.511893 0.859049 470.194 47.3082)" stroke="#192937"/>
<rect x="0.244054" y="0.429525" width="55" height="55" rx="5.5" transform="matrix(1 0 -0.511893 0.859049 525.194 47.3082)" stroke="#192937"/>
<rect x="0.244054" y="0.429525" width="55" height="55" rx="5.5" transform="matrix(1 0 -0.511893 0.859049 580.194 47.3082)" stroke="#192937"/>
<rect x="0.244054" y="0.429525" width="55" height="55" rx="5.5" transform="matrix(1 0 -0.511893 0.859049 57.0398 94.5559)" stroke="#192937"/>
<rect x="0.244054" y="0.429525" width="55" height="55" rx="5.5" transform="matrix(1 0 -0.511893 0.859049 112.04 94.5559)" stroke="#192937"/>
<rect x="0.244054" y="0.429525" width="55" height="55" rx="5.5" transform="matrix(1 0 -0.511893 0.859049 167.04 94.5559)" stroke="#192937"/>
<rect x="0.244054" y="0.429525" width="55" height="55" rx="5.5" transform="matrix(1 0 -0.511893 0.859049 222.04 94.5559)" stroke="#192937"/>
<rect x="0.244054" y="0.429525" width="55" height="55" rx="5.5" transform="matrix(1 0 -0.511893 0.859049 277.04 94.5559)" stroke="#192937"/>
<rect x="0.244054" y="0.429525" width="55" height="55" rx="5.5" transform="matrix(1 0 -0.511893 0.859049 332.04 94.5559)" stroke="#192937"/>
<rect x="0.244054" y="0.429525" width="55" height="55" rx="5.5" transform="matrix(1 0 -0.511893 0.859049 387.04 94.5559)" stroke="#192937"/>
<rect x="0.244054" y="0.429525" width="55" height="55" rx="5.5" transform="matrix(1 0 -0.511893 0.859049 442.04 94.5559)" stroke="#192937"/>
<rect x="0.244054" y="0.429525" width="55" height="55" rx="5.5" transform="matrix(1 0 -0.511893 0.859049 497.04 94.5559)" stroke="#192937"/>
<rect x="0.244054" y="0.429525" width="55" height="55" rx="5.5" transform="matrix(1 0 -0.511893 0.859049 552.04 94.5559)" stroke="#192937"/>
<rect x="0.244054" y="0.429525" width="55" height="55" rx="5.5" transform="matrix(1 0 -0.511893 0.859049 28.8857 141.804)" stroke="#192937"/>
<rect x="0.244054" y="0.429525" width="55" height="55" rx="5.5" transform="matrix(1 0 -0.511893 0.859049 83.8857 141.804)" stroke="#192937"/>
<rect x="0.244054" y="0.429525" width="55" height="55" rx="5.5" transform="matrix(1 0 -0.511893 0.859049 138.886 141.804)" stroke="#192937"/>
<rect x="0.244054" y="0.429525" width="55" height="55" rx="5.5" transform="matrix(1 0 -0.511893 0.859049 193.886 141.804)" stroke="#192937"/>
<rect x="0.244054" y="0.429525" width="55" height="55" rx="5.5" transform="matrix(1 0 -0.511893 0.859049 248.886 141.804)" stroke="#192937"/>
<rect x="0.244054" y="0.429525" width="55" height="55" rx="5.5" transform="matrix(1 0 -0.511893 0.859049 303.886 141.804)" stroke="#192937"/>
<rect x="0.244054" y="0.429525" width="55" height="55" rx="5.5" transform="matrix(1 0 -0.511893 0.859049 358.886 141.804)" stroke="#192937"/>
<rect x="0.244054" y="0.429525" width="55" height="55" rx="5.5" transform="matrix(1 0 -0.511893 0.859049 413.886 141.804)" stroke="#192937"/>
<rect x="0.244054" y="0.429525" width="55" height="55" rx="5.5" transform="matrix(1 0 -0.511893 0.859049 468.886 141.804)" stroke="#192937"/>
<rect x="0.244054" y="0.429525" width="55" height="55" rx="5.5" transform="matrix(1 0 -0.511893 0.859049 523.886 141.804)" stroke="#192937"/>
</svg>
