<svg width="60" height="48" viewBox="0 0 60 48" fill="none" xmlns="http://www.w3.org/2000/svg">
<g filter="url(#filter0_i_12_90)">
<rect width="60" height="48" rx="4" fill="url(#paint0_linear_12_90)"/>
</g>
<rect x="0.5" y="0.5" width="59" height="47" rx="3.5" stroke="#52C5FA"/>
<g filter="url(#filter1_i_12_90)">
<path d="M23 16.9999L25.3334 14.6666M25.3334 14.6666L23 12.3333M25.3334 14.6666H23C20.4227 14.6666 18.3334 16.7559 18.3334 19.3333M37 30.9999L34.6667 33.3333M34.6667 33.3333L37 35.6666M34.6667 33.3333H37C39.5774 33.3333 41.6667 31.2439 41.6667 28.6666M31.6534 25.6533C32.566 26.0892 33.5879 26.3333 34.6667 26.3333C38.5327 26.3333 41.6667 23.1992 41.6667 19.3333C41.6667 15.4673 38.5327 12.3333 34.6667 12.3333C30.8007 12.3333 27.6667 15.4673 27.6667 19.3333C27.6667 20.4121 27.9108 21.4339 28.3467 22.3466M32.3334 28.6666C32.3334 32.5326 29.1994 35.6666 25.3334 35.6666C21.4674 35.6666 18.3334 32.5326 18.3334 28.6666C18.3334 24.8006 21.4674 21.6666 25.3334 21.6666C29.1994 21.6666 32.3334 24.8006 32.3334 28.6666Z" stroke="#52C5FA" stroke-width="1.8" stroke-linecap="round" stroke-linejoin="round"/>
</g>
<defs>
<filter id="filter0_i_12_90" x="0" y="0" width="60" height="49" filterUnits="userSpaceOnUse" color-interpolation-filters="sRGB">
<feFlood flood-opacity="0" result="BackgroundImageFix"/>
<feBlend mode="normal" in="SourceGraphic" in2="BackgroundImageFix" result="shape"/>
<feColorMatrix in="SourceAlpha" type="matrix" values="0 0 0 0 0 0 0 0 0 0 0 0 0 0 0 0 0 0 127 0" result="hardAlpha"/>
<feOffset dy="1"/>
<feGaussianBlur stdDeviation="3.5"/>
<feComposite in2="hardAlpha" operator="arithmetic" k2="-1" k3="1"/>
<feColorMatrix type="matrix" values="0 0 0 0 1 0 0 0 0 1 0 0 0 0 1 0 0 0 0.32 0"/>
<feBlend mode="overlay" in2="shape" result="effect1_innerShadow_12_90"/>
</filter>
<filter id="filter1_i_12_90" x="17.4333" y="11.4333" width="25.1333" height="27.1333" filterUnits="userSpaceOnUse" color-interpolation-filters="sRGB">
<feFlood flood-opacity="0" result="BackgroundImageFix"/>
<feBlend mode="normal" in="SourceGraphic" in2="BackgroundImageFix" result="shape"/>
<feColorMatrix in="SourceAlpha" type="matrix" values="0 0 0 0 0 0 0 0 0 0 0 0 0 0 0 0 0 0 127 0" result="hardAlpha"/>
<feOffset dy="2"/>
<feGaussianBlur stdDeviation="1"/>
<feComposite in2="hardAlpha" operator="arithmetic" k2="-1" k3="1"/>
<feColorMatrix type="matrix" values="0 0 0 0 1 0 0 0 0 1 0 0 0 0 1 0 0 0 0.47 0"/>
<feBlend mode="overlay" in2="shape" result="effect1_innerShadow_12_90"/>
</filter>
<linearGradient id="paint0_linear_12_90" x1="30" y1="0" x2="30" y2="48" gradientUnits="userSpaceOnUse">
<stop stop-color="#242834"/>
<stop offset="1" stop-color="#1A1D26"/>
</linearGradient>
</defs>
</svg>
