<svg width="580" height="267" viewBox="0 0 580 267" fill="none" xmlns="http://www.w3.org/2000/svg">
<path d="M10.9007 24L5.44801 29.4209L0 24L5.44801 18.5791L10.9007 24ZM24.1202 10.837L33.4563 20.1313L38.9043 14.7104L24.1202 0L9.33608 14.7104L14.7841 20.1313L24.1202 10.837ZM42.7971 18.5791L37.349 24L42.7971 29.4209L48.2404 24L42.7971 18.5791ZM24.1202 37.163L14.7841 27.8734L9.33608 33.2896L24.1202 48L38.9043 33.2896L33.4563 27.8734L24.1202 37.163ZM24.1202 29.4209L29.5682 24L24.1202 18.5791L18.6722 24L24.1202 29.4209ZM81.6165 29.9414V29.8664C81.6165 26.3306 79.7314 24.5627 76.6633 23.3998C78.5485 22.3447 80.1414 20.6893 80.1414 17.721V17.646C80.1414 13.51 76.8141 10.837 71.4085 10.837H59.1364V37.163H71.7196C77.6907 37.163 81.6259 34.7573 81.6259 29.9414H81.6165ZM74.3588 18.687C74.3588 20.6424 72.7328 21.4724 70.1644 21.4724H64.8059V15.9156H70.5508C73.0062 15.9156 74.3682 16.891 74.3682 18.6213L74.3588 18.687ZM75.8339 29.2192C75.8339 31.1747 74.2834 32.075 71.7102 32.075H64.8059V26.2931H71.5311C74.519 26.2931 75.8433 27.3857 75.8433 29.1536L75.8339 29.2192ZM93.8462 37.163V10.837H88.0071V37.163H93.8462ZM125.135 37.163V10.837H119.371V27.0481L106.976 10.837H101.608V37.163H107.353V20.4267L120.163 37.163H125.135ZM157.375 37.163L146.017 10.6495H140.649L129.315 37.163H135.248L137.675 31.2591H148.864L151.281 37.163H157.375ZM146.795 26.143H139.744L143.26 17.6084L146.795 26.143ZM185.119 37.163V10.837H179.356V27.0481L166.956 10.837H161.593V37.163H167.333V20.4267L180.147 37.163H185.119ZM215.163 32.9144L211.464 29.1911C209.386 31.0668 207.533 32.272 204.508 32.272C199.974 32.272 196.835 28.5205 196.835 24V23.925C196.835 19.4138 200.049 15.728 204.508 15.728C207.152 15.728 209.221 16.8535 211.275 18.6964L214.966 14.4478C212.51 12.0422 209.527 10.3869 204.536 10.3869C196.411 10.3869 190.742 16.5158 190.742 23.9859V24.061C190.742 31.6202 196.524 37.5991 204.31 37.5991C209.404 37.6131 212.425 35.8077 215.145 32.9144H215.163ZM240 37.163V32.0047H225.616V26.4666H238.091V21.3083H225.616V15.9906H239.793V10.8324H219.834V37.1583L240 37.163Z" fill="#D5EAFF"/>
<path d="M213.077 152.893C214.367 154.323 221.454 161.176 232.578 153.223C240.621 146.668 240.42 132.456 239.648 128.165C239.378 128.789 230.036 150.199 213.077 152.893ZM239.646 128.161C239.548 128.118 229.2 126.642 218.969 133.537C212.617 137.819 211.777 144.085 212.067 148.261C226.938 146.519 239.309 128.652 239.646 128.161Z" fill="#D5EAFF"/>
<path d="M239.646 128.161C239.548 128.118 229.2 126.642 218.969 133.537C212.617 137.819 211.777 144.085 212.067 148.261C226.938 146.519 239.309 128.652 239.646 128.161Z" fill="#D5EAFF"/>
<path d="M16.5899 152.057H5.00529V145.601H16.5899C19.486 145.601 20.9656 147.05 20.9656 148.928C20.9656 150.74 19.5175 152.057 16.5899 152.057ZM16.2121 142.142H5.00529V136.706H16.2121C19.2656 136.706 20.4619 137.826 20.4619 139.375C20.4619 140.791 19.0768 142.142 16.2121 142.142ZM19.1712 143.789C24.0506 143.624 25.8135 141.088 25.8135 138.321C25.8135 135.29 23.5154 132.786 17.912 132.786H0V155.912H18.4472C23.0432 155.912 26.4745 153.902 26.4745 149.587C26.4745 146.523 24.5543 143.921 19.1712 143.789ZM32.3863 132.786V155.912H37.3916V132.786H32.3863ZM57.6896 137.168H68.7075V132.786H41.6664V137.168H52.6843V155.912H57.6896V137.168ZM72.9823 132.786V155.912H77.9876V146.885H89.7296V143.097H77.9876V136.772H97.0644V132.786H72.9823ZM101.119 132.786V155.912H106.124V132.786H101.119ZM117.86 138.419L134.45 155.912H140.116V132.786H135.174V149.455L119.245 132.786H112.886V155.912H117.86V138.419ZM146.878 132.786V155.912H171.369V152.024H151.883V145.667H163.562V142.076H151.883V136.772H171.369V132.786H146.878ZM204.888 132.786H198.278L189.841 140.923L181.467 132.786H174.762L186.536 144.184L174.322 155.912H180.932L189.778 147.38L198.592 155.912H205.329L193.083 144.151L204.888 132.786Z" fill="#D5EAFF"/>
<path d="M42.3356 237.042C45.6479 236.819 49.0239 237.487 51.9859 238.981C56.3811 241.142 59.8845 245.02 61.5088 249.597C62.2414 251.631 62.6236 253.76 62.6236 255.922V263.899C62.6236 264.217 62.6236 264.567 62.5599 264.885C62.3688 265.679 61.7955 266.41 61.0311 266.76C60.4897 267.014 59.8845 267.046 59.3431 266.951C58.1328 266.728 57.1773 265.584 57.1773 264.344C57.1773 261.865 57.1773 259.386 57.1773 256.907C57.2092 256.208 57.2092 255.445 56.827 254.841C56.2219 253.697 54.6931 253.156 53.5147 253.633C52.4955 253.983 51.763 255.032 51.7311 256.112C51.7311 258.623 51.7311 261.134 51.7311 263.645C51.7311 264.122 51.763 264.599 51.6037 265.044C51.3489 265.933 50.6164 266.633 49.7246 266.887C48.5462 267.205 47.2085 266.696 46.6352 265.616C46.2212 264.98 46.253 264.185 46.2849 263.454C46.2849 260.943 46.2849 258.464 46.2849 255.953C46.253 254.682 45.202 253.538 43.9599 253.379C43.1318 253.252 42.2719 253.538 41.6667 254.11C41.1253 254.618 40.8387 255.349 40.8387 256.08V263.359C40.8387 263.963 40.9024 264.599 40.6794 265.171C40.3291 266.22 39.2781 266.982 38.1633 266.951C37.0168 267.014 35.902 266.22 35.5517 265.171C35.3606 264.63 35.3924 264.09 35.3924 263.518C35.3924 261.007 35.3924 258.496 35.3924 255.985C35.3924 254.746 34.4051 253.601 33.1948 253.379C32.0801 253.156 30.8699 253.697 30.2966 254.714C30.0736 255.127 29.9462 255.604 29.9462 256.08V264.249C29.9462 265.044 29.5959 265.838 28.9907 266.347C28.0671 267.141 26.5702 267.205 25.6147 266.474C24.914 265.997 24.5 265.171 24.5 264.312V256.049C24.5 252.934 25.2962 249.819 26.7931 247.054C28.0034 244.797 29.6914 242.795 31.6979 241.206C34.6599 238.726 38.45 237.264 42.3356 237.042Z" fill="#D5EAFF"/>
<path d="M116.767 246.609H112.627C112.786 243.716 113.391 241.11 116.035 239.457C118.678 237.836 121.577 237.455 124.602 237.709C126.227 237.836 127.851 238.186 129.348 238.885C131.991 240.093 133.297 242.159 133.297 245.051C133.297 250.169 133.297 255.286 133.297 260.403C133.297 262.278 133.679 262.628 135.558 262.437C135.749 262.405 135.972 262.374 136.163 262.342C136.195 262.437 136.195 262.533 136.195 262.596V265.711C134.698 266.22 133.17 266.378 131.673 265.965C130.558 265.647 129.857 264.853 129.475 263.804C129.284 263.264 129.157 262.692 128.997 262.088C128.838 262.278 128.711 262.437 128.552 262.596C125.271 265.902 121.385 267.3 116.799 266.124C113.551 265.298 111.321 262.342 111.226 258.973C111.194 257.892 111.289 256.811 111.544 255.763C112.149 253.347 113.869 251.885 116.035 250.9C117.564 250.2 119.22 250.01 120.876 249.787C122.819 249.533 124.73 249.31 126.672 249.024C127.978 248.834 128.647 248.134 128.838 246.831C129.252 244.193 128.074 242.445 125.526 241.809C123.997 241.428 122.436 241.364 120.876 241.651C118.583 242.064 117.309 243.367 116.863 245.624C116.895 245.941 116.831 246.259 116.767 246.609ZM128.966 251.694C127.055 252.711 125.207 252.966 123.328 253.252C121.768 253.506 120.175 253.728 118.646 254.205C116.64 254.873 115.716 256.525 115.907 258.75C116.067 260.594 117.309 262.088 119.315 262.405C122.405 262.914 125.144 262.056 127.309 259.767C127.946 259.1 128.456 258.146 128.583 257.256C128.87 255.477 128.838 253.665 128.966 251.694ZM187.982 257.034C187.887 257.479 187.823 257.86 187.727 258.21C185.944 263.645 182.313 265.965 177.918 266.474C170.306 267.3 165.943 262.342 164.828 257.066C163.936 252.87 164.063 248.707 165.911 244.765C167.662 241.047 170.465 238.599 174.637 237.868C179.638 236.978 186.708 239.457 187.887 247.244C188.205 249.247 188.269 251.313 188.46 253.411H169.096C169.255 256.271 169.701 258.941 171.803 261.007C172.663 261.865 173.777 262.278 174.988 262.501C178.905 263.2 182.154 261.325 183.428 257.543C183.555 257.129 183.746 257.002 184.16 257.034C185.402 257.034 186.645 257.034 187.982 257.034ZM169.255 249.724H183.746C183.587 248.039 183.3 246.482 182.504 245.02C181.74 243.621 180.625 242.604 179.096 242.095C174.096 240.379 168.936 244.352 169.255 249.724ZM198.397 265.552H194.002V238.281H198.174V242.095C198.492 241.746 198.684 241.523 198.875 241.301C201.869 237.9 205.627 237.01 209.895 238.059C212.856 238.79 214.513 240.888 215.086 243.812C215.309 245.02 215.468 246.259 215.468 247.467C215.5 253.315 215.5 259.163 215.5 265.012C215.5 265.171 215.468 265.33 215.468 265.52H210.977V264.789C210.977 259.322 211.009 253.856 210.946 248.389C210.946 247.181 210.754 245.941 210.404 244.765C209.831 242.858 208.302 241.841 206.296 241.746C202.633 241.619 199.735 243.558 198.843 246.8C198.524 247.976 198.429 249.215 198.429 250.455C198.397 255.254 198.397 260.022 198.397 264.757V265.552ZM140.463 238.281H144.699V249.851C144.954 249.597 145.113 249.469 145.272 249.31C148.744 245.782 152.216 242.223 155.687 238.695C155.974 238.377 156.26 238.25 156.706 238.25C158.331 238.281 159.987 238.25 161.77 238.25C161.516 238.504 161.388 238.663 161.229 238.822C158.171 241.873 155.146 244.956 152.056 247.976C151.706 248.325 151.706 248.548 151.929 248.929C155.273 254.237 158.585 259.545 161.898 264.853C162.025 265.044 162.121 265.234 162.28 265.52C162.057 265.552 161.898 265.552 161.707 265.552C160.178 265.552 158.681 265.552 157.152 265.552C156.738 265.552 156.547 265.393 156.324 265.075C153.776 260.816 151.228 256.557 148.68 252.266C148.553 252.076 148.457 251.885 148.298 251.662C147.12 252.838 145.973 253.951 144.826 255.127C144.667 255.286 144.635 255.572 144.635 255.794C144.635 258.782 144.635 261.77 144.635 264.757V265.52C143.807 265.52 142.979 265.52 142.183 265.52C141.61 265.52 140.813 265.679 140.495 265.361C140.208 265.107 140.368 264.281 140.368 263.709V239.012C140.463 238.854 140.463 238.599 140.463 238.281ZM91.5745 238.25C88.1348 241.651 84.7906 244.988 81.4146 248.325C85.0454 254.11 88.5807 259.767 92.1797 265.552C91.893 265.552 91.7019 265.584 91.5108 265.584C90.0458 265.584 88.5489 265.584 87.0838 265.584C86.6697 265.584 86.415 265.425 86.192 265.075C83.6441 260.816 81.0961 256.557 78.5482 252.266C78.4526 252.076 78.3252 251.917 78.166 251.662C77.529 252.33 76.9557 253.061 76.255 253.57C74.8218 254.65 74.4078 255.985 74.5033 257.765C74.6626 260.085 74.5352 262.437 74.5352 264.757V265.52H70.3311V238.281H74.5352V249.66C74.6307 249.724 74.7263 249.787 74.79 249.851C74.9174 249.66 74.9811 249.438 75.1085 249.279C78.5482 245.751 82.0198 242.254 85.4595 238.695C85.778 238.377 86.0646 238.218 86.5424 238.25C87.9756 238.281 89.4088 238.25 90.842 238.25C91.0649 238.25 91.256 238.25 91.5745 238.25ZM99.9827 242.795C102.117 239.68 104.378 237.074 108.582 237.836V242.509C107.467 242.572 106.353 242.54 105.302 242.763C102.722 243.303 100.715 245.655 100.301 248.516C100.238 249.088 100.174 249.66 100.174 250.232C100.174 255.095 100.174 259.958 100.174 264.821V265.584H95.8423V238.345H99.9827C99.9827 239.775 99.9827 241.206 99.9827 242.795Z" fill="#D5EAFF"/>
<path d="M485 34.7233V5.10632H491V34.7233H485Z" fill="#D5EAFF"/>
<path d="M415.278 42.8936H402V13.2766H414.74C420.938 13.2766 424.543 16.5221 424.543 21.602C424.543 24.8945 422.227 27.0111 420.628 27.7167C422.537 28.5476 425 30.4134 425 34.3801C425 39.899 420.938 42.8936 415.278 42.8936ZM414.267 18.4349H408.215V25.2551H414.267C416.893 25.2551 418.361 23.8754 418.361 21.8372C418.361 19.7989 416.893 18.4349 414.267 18.4349ZM414.658 30.4448H408.199V37.7197H414.658C417.464 37.7197 418.801 36.0577 418.801 34.0509C418.801 32.044 417.464 30.4448 414.658 30.4448Z" fill="#D5EAFF"/>
<path d="M442.566 30.7427V42.8936H436.466V30.7427L427 13.2766H433.667L439.54 25.2081L445.333 13.2766H452L442.566 30.7427Z" fill="#D5EAFF"/>
<path d="M468.701 42.8936H456V13.2766H468.186C474.115 13.2766 477.563 16.5221 477.563 21.602C477.563 24.8945 475.348 27.0111 473.818 27.7167C475.644 28.5476 478 30.4134 478 34.3801C477.984 39.899 474.115 42.8936 468.701 42.8936ZM467.718 18.4349H461.929V25.2551H467.718C470.23 25.2551 471.634 23.8754 471.634 21.8372C471.634 19.7989 470.23 18.4349 467.718 18.4349ZM468.092 30.4448H461.913V37.7197H468.092C470.776 37.7197 472.055 36.0577 472.055 34.0509C472.055 32.044 470.791 30.4448 468.092 30.4448Z" fill="#D5EAFF"/>
<path d="M509.624 18.4349V42.8936H503.359V18.4349H495V13.2766H518V18.4349H509.624Z" fill="#D5EAFF"/>
<path d="M359.96 117L340 128.5V151.5L359.96 163L379.92 151.5V128.5L359.96 117ZM359.96 117L340 128.5V151.5L359.96 163L379.92 151.5V128.5L359.96 117Z" fill="#D5EAFF"/>
<path d="M367.84 154.016H365L361.6 150.901V149.304L365.12 145.95V140.639L369.72 137.644L374.96 141.597L367.84 154.016ZM356.08 145.63L356.6 140.639L354.88 136.167H365.04L363.36 140.639L363.84 145.63H356.08ZM358.4 150.901L355 154.056H352.12L344.96 141.597L350.24 137.684L354.88 140.639V145.95L358.4 149.304V150.901ZM352.08 126.943H367.8L369.68 134.929H350.24L352.08 126.943ZM359.96 117L340 128.5V151.5L359.96 163L379.92 151.5V128.5L359.96 117Z" fill="#D5EAFF"/>
<path d="M402.32 150.661C397.04 150.661 393.16 146.549 393.16 141.477C393.16 136.406 397.08 132.174 402.36 132.174C405.72 132.174 407.8 133.411 409.44 135.208L406.92 137.924C405.68 136.606 404.36 135.727 402.32 135.727C399.36 135.727 397.2 138.283 397.2 141.398C397.2 144.592 399.4 147.148 402.52 147.148C404.44 147.148 405.84 146.229 407.12 144.951L409.56 147.387C407.8 149.264 405.76 150.661 402.32 150.661Z" fill="#D5EAFF"/>
<path d="M417.28 150.661H413.2V132.214H417.28V136.526C418.4 133.891 420.44 132.054 423.56 132.214V136.526H423.32C419.76 136.526 417.28 138.842 417.28 143.554V150.661Z" fill="#D5EAFF"/>
<path d="M444.88 132.134L435.88 155.613H431.76L433.72 150.661L426 132.134H430.36L435.6 145.83L440.64 132.134H444.88Z" fill="#D5EAFF"/>
<path d="M456.88 135.687C454.12 135.687 451.72 137.924 451.72 141.398C451.72 144.872 454.16 147.108 456.88 147.108C459.68 147.108 461.96 144.911 461.96 141.398C461.96 137.884 459.64 135.687 456.88 135.687ZM457.8 150.622C454.88 150.622 453.04 149.144 451.8 147.507V155.613H447.72V132.134H451.8V135.448C453.12 133.611 454.96 132.134 457.8 132.134C462 132.134 466.08 135.448 466.08 141.358C466.08 147.267 462.04 150.622 457.8 150.622Z" fill="#D5EAFF"/>
<path d="M475 136.007V144.712C475 146.269 475.8 146.908 477.2 146.908H478.8V150.542H476C473.04 150.542 470.92 149.224 470.92 145.351V136.007H468.68V132.533H470.92V127.661H475V132.533H478.8V136.007H475Z" fill="#D5EAFF"/>
<path d="M491.64 135.687C488.36 135.687 486.28 138.243 486.28 141.358C486.28 144.512 488.52 147.108 491.68 147.108C494.96 147.108 497.04 144.552 497.04 141.437C497.12 138.283 494.84 135.687 491.64 135.687ZM491.64 150.661C486.24 150.661 482.24 146.549 482.24 141.477C482.24 136.366 486.28 132.174 491.72 132.174C497.16 132.174 501.16 136.286 501.16 141.398C501.16 146.429 497.16 150.661 491.64 150.661Z" fill="#D5EAFF"/>
<path d="M540.08 135.687C536.8 135.687 534.72 138.243 534.72 141.358C534.72 144.512 536.96 147.108 540.12 147.108C543.4 147.108 545.48 144.552 545.48 141.437C545.52 138.283 543.28 135.687 540.08 135.687ZM540.08 150.661C534.68 150.661 530.68 146.549 530.68 141.477C530.68 136.366 534.72 132.174 540.16 132.174C545.6 132.174 549.6 136.286 549.6 141.398C549.6 146.429 545.56 150.661 540.08 150.661Z" fill="#D5EAFF"/>
<path d="M573.76 132.134C577.64 132.134 580 134.569 580 138.922V150.622H575.92V140.16C575.92 137.325 574.6 135.847 572.32 135.847C570.12 135.847 568.52 137.405 568.52 140.24V150.661H564.44V140.16C564.44 137.405 563.08 135.847 560.84 135.847C558.6 135.847 557.04 137.524 557.04 140.28V150.661H552.96V132.174H557.04V135.208C558.2 133.651 559.72 132.174 562.44 132.174C565 132.174 566.76 133.411 567.72 135.288C569.2 133.372 571.08 132.134 573.76 132.134Z" fill="#D5EAFF"/>
<path d="M504.72 146.708L506.48 145.71H506.72L508.52 146.708L508.64 146.908V148.984L508.52 149.184L506.72 150.182H506.48L504.72 149.184L504.6 148.984V146.908L504.72 146.708Z" fill="#D5EAFF"/>
<path d="M521 150.622C515.72 150.502 511.92 146.309 512 141.238C512.08 136.167 516.08 132.014 521.4 132.134C524.76 132.214 526.84 133.491 528.44 135.328L525.88 138.003C524.68 136.686 523.36 135.727 521.32 135.688C518.36 135.648 516.16 138.123 516.12 141.278C516.04 144.472 518.2 147.068 521.32 147.108C523.24 147.148 524.68 146.269 525.96 144.991L528.36 147.467C526.56 149.344 524.48 150.701 521 150.622Z" fill="#D5EAFF"/>
<path d="M401.558 241.771C394.438 241.771 388.874 247.175 388.874 254.408C388.874 261.641 394.297 266.998 401.558 266.998C408.819 266.998 414.336 261.549 414.336 254.362C414.336 247.221 408.913 241.771 401.558 241.771ZM401.606 261.785C397.551 261.785 394.58 258.637 394.58 254.41C394.58 250.134 397.503 246.988 401.558 246.988C405.661 246.988 408.63 250.182 408.63 254.41C408.63 258.637 405.661 261.785 401.606 261.785ZM415.891 247.269H419.428V266.53H425.086V242.241H415.891V247.269ZM374.636 246.986C377.607 246.986 379.964 248.818 380.859 251.543H386.848C385.763 245.718 380.953 241.771 374.684 241.771C367.563 241.771 362 247.175 362 254.41C362 261.645 367.423 267 374.684 267C380.813 267 385.716 263.053 386.802 257.181H380.859C380.01 259.905 377.653 261.785 374.682 261.785C370.579 261.785 367.704 258.637 367.704 254.41C367.706 250.134 370.535 246.986 374.636 246.986ZM523.392 252.06L519.243 251.45C517.262 251.169 515.848 250.511 515.848 248.96C515.848 247.269 517.688 246.424 520.186 246.424C522.92 246.424 524.666 247.598 525.043 249.524H530.512C529.898 244.638 526.126 241.773 520.328 241.773C514.339 241.773 510.379 244.827 510.379 249.149C510.379 253.282 512.973 255.68 518.205 256.43L522.354 257.04C524.383 257.321 525.514 258.122 525.514 259.624C525.514 261.551 523.534 262.349 520.799 262.349C517.451 262.349 515.565 260.987 515.282 258.92H509.719C510.238 263.665 513.962 267 520.751 267C526.929 267 531.03 264.181 531.03 259.342C531.03 255.02 528.06 252.765 523.392 252.06ZM422.257 232.235C420.182 232.235 418.625 233.738 418.625 235.804C418.625 237.871 420.18 239.374 422.257 239.374C424.331 239.374 425.888 237.871 425.888 235.804C425.888 233.738 424.331 232.235 422.257 232.235ZM505.287 250.557C505.287 245.296 502.081 241.773 495.292 241.773C488.879 241.773 485.296 245.015 484.588 249.995H490.2C490.482 248.069 491.991 246.472 495.197 246.472C498.074 246.472 499.489 247.74 499.489 249.291C499.489 251.311 496.895 251.827 493.688 252.156C489.351 252.626 483.976 254.129 483.976 259.767C483.976 264.137 487.23 266.954 492.416 266.954C496.471 266.954 499.017 265.262 500.291 262.584C500.48 264.98 502.271 266.53 504.771 266.53H508.071V261.504H505.289V250.557H505.287ZM499.723 256.665C499.723 259.907 496.895 262.303 493.452 262.303C491.329 262.303 489.538 261.41 489.538 259.532C489.538 257.136 492.415 256.478 495.055 256.197C497.601 255.962 499.015 255.399 499.723 254.317V256.665ZM469.689 241.771C466.53 241.771 463.889 243.087 462.003 245.295V232H456.346V266.53H461.909V263.336C463.795 265.638 466.483 267 469.689 267C476.479 267 481.619 261.645 481.619 254.41C481.619 247.175 476.384 241.771 469.689 241.771ZM468.841 261.785C464.786 261.785 461.815 258.637 461.815 254.41C461.815 250.182 464.832 246.988 468.887 246.988C472.99 246.988 475.865 250.136 475.865 254.41C475.865 258.637 472.895 261.785 468.841 261.785ZM442.813 241.771C439.136 241.771 436.73 243.274 435.316 245.389V242.241H429.704V266.529H435.362V253.328C435.362 249.616 437.72 246.986 441.208 246.986C444.463 246.986 446.489 249.287 446.489 252.624V266.53H452.147V252.202C452.149 246.093 448.991 241.771 442.813 241.771ZM558 253.611C558 246.659 552.908 241.773 546.071 241.773C538.81 241.773 533.481 247.223 533.481 254.41C533.481 261.974 539.187 267 546.165 267C552.059 267 556.68 263.523 557.858 258.591H551.963C551.115 260.752 549.04 261.974 546.258 261.974C542.626 261.974 539.892 259.719 539.28 255.772H557.998V253.611H558ZM539.611 251.731C540.507 248.348 543.053 246.705 545.976 246.705C549.182 246.705 551.634 248.537 552.2 251.731H539.611Z" fill="#D5EAFF"/>
</svg>
