<svg width="60" height="48" viewBox="0 0 60 48" fill="none" xmlns="http://www.w3.org/2000/svg">
<g filter="url(#filter0_i_12_55)">
<rect width="60" height="48" rx="4" fill="url(#paint0_linear_12_55)"/>
</g>
<rect x="0.5" y="0.5" width="59" height="47" rx="3.5" stroke="#52C5FA"/>
<g filter="url(#filter1_i_12_55)">
<path d="M17.2268 24.9509C17.0452 24.6633 16.9545 24.5196 16.9036 24.2978C16.8655 24.1313 16.8655 23.8686 16.9036 23.7021C16.9545 23.4803 17.0452 23.3366 17.2268 23.0491C18.7274 20.6731 23.1939 14.6666 30.0005 14.6666C36.8072 14.6666 41.2737 20.6731 42.7742 23.0491C42.9558 23.3366 43.0466 23.4803 43.0974 23.7021C43.1356 23.8686 43.1356 24.1313 43.0974 24.2978C43.0466 24.5196 42.9558 24.6633 42.7742 24.9509C41.2737 27.3268 36.8072 33.3333 30.0005 33.3333C23.1939 33.3333 18.7274 27.3268 17.2268 24.9509Z" stroke="#52C5FA" stroke-width="1.8" stroke-linecap="round" stroke-linejoin="round"/>
<path d="M30.0005 28C32.2097 28 34.0005 26.2091 34.0005 24C34.0005 21.7908 32.2097 20 30.0005 20C27.7914 20 26.0005 21.7908 26.0005 24C26.0005 26.2091 27.7914 28 30.0005 28Z" stroke="#52C5FA" stroke-width="1.8" stroke-linecap="round" stroke-linejoin="round"/>
</g>
<defs>
<filter id="filter0_i_12_55" x="0" y="0" width="60" height="49" filterUnits="userSpaceOnUse" color-interpolation-filters="sRGB">
<feFlood flood-opacity="0" result="BackgroundImageFix"/>
<feBlend mode="normal" in="SourceGraphic" in2="BackgroundImageFix" result="shape"/>
<feColorMatrix in="SourceAlpha" type="matrix" values="0 0 0 0 0 0 0 0 0 0 0 0 0 0 0 0 0 0 127 0" result="hardAlpha"/>
<feOffset dy="1"/>
<feGaussianBlur stdDeviation="3.5"/>
<feComposite in2="hardAlpha" operator="arithmetic" k2="-1" k3="1"/>
<feColorMatrix type="matrix" values="0 0 0 0 1 0 0 0 0 1 0 0 0 0 1 0 0 0 0.32 0"/>
<feBlend mode="overlay" in2="shape" result="effect1_innerShadow_12_55"/>
</filter>
<filter id="filter1_i_12_55" x="15.975" y="13.7666" width="28.0511" height="22.4667" filterUnits="userSpaceOnUse" color-interpolation-filters="sRGB">
<feFlood flood-opacity="0" result="BackgroundImageFix"/>
<feBlend mode="normal" in="SourceGraphic" in2="BackgroundImageFix" result="shape"/>
<feColorMatrix in="SourceAlpha" type="matrix" values="0 0 0 0 0 0 0 0 0 0 0 0 0 0 0 0 0 0 127 0" result="hardAlpha"/>
<feOffset dy="2"/>
<feGaussianBlur stdDeviation="1"/>
<feComposite in2="hardAlpha" operator="arithmetic" k2="-1" k3="1"/>
<feColorMatrix type="matrix" values="0 0 0 0 1 0 0 0 0 1 0 0 0 0 1 0 0 0 0.47 0"/>
<feBlend mode="overlay" in2="shape" result="effect1_innerShadow_12_55"/>
</filter>
<linearGradient id="paint0_linear_12_55" x1="30" y1="0" x2="30" y2="48" gradientUnits="userSpaceOnUse">
<stop stop-color="#242834"/>
<stop offset="1" stop-color="#1A1D26"/>
</linearGradient>
</defs>
</svg>
