<svg width="60" height="48" viewBox="0 0 60 48" fill="none" xmlns="http://www.w3.org/2000/svg">
<g filter="url(#filter0_i_7_840)">
<rect width="60" height="48" rx="4" fill="url(#paint0_linear_7_840)"/>
</g>
<rect x="0.5" y="0.5" width="59" height="47" rx="3.5" stroke="#52C5FA"/>
<g filter="url(#filter1_i_7_840)">
<path d="M41 31.3333V29C41 27.7113 39.9553 26.6666 38.6667 26.6666C37.378 26.6666 36.3333 27.7113 36.3333 29V31.3333M43.3333 21.3333H16.6667M43.3333 22.6666V18.9333C43.3333 17.4398 43.3333 16.6931 43.0427 16.1227C42.787 15.6209 42.3791 15.2129 41.8773 14.9573C41.3069 14.6666 40.5601 14.6666 39.0667 14.6666H20.9333C19.4399 14.6666 18.6931 14.6666 18.1227 14.9573C17.6209 15.2129 17.213 15.6209 16.9573 16.1227C16.6667 16.6931 16.6667 17.4398 16.6667 18.9333V29.0666C16.6667 30.5601 16.6667 31.3068 16.9573 31.8773C17.213 32.379 17.6209 32.787 18.1227 33.0426C18.6931 33.3333 19.4398 33.3333 20.9333 33.3333H28.6667M36.1333 36.6666H41.2C41.9467 36.6666 42.3201 36.6666 42.6053 36.5213C42.8562 36.3935 43.0602 36.1895 43.188 35.9386C43.3333 35.6534 43.3333 35.28 43.3333 34.5333V33.4666C43.3333 32.7199 43.3333 32.3465 43.188 32.0613C43.0602 31.8104 42.8562 31.6064 42.6053 31.4786C42.3201 31.3333 41.9467 31.3333 41.2 31.3333H36.1333C35.3866 31.3333 35.0132 31.3333 34.728 31.4786C34.4771 31.6064 34.2731 31.8104 34.1453 32.0613C34 32.3465 34 32.7199 34 33.4666V34.5333C34 35.28 34 35.6534 34.1453 35.9386C34.2731 36.1895 34.4771 36.3935 34.728 36.5213C35.0132 36.6666 35.3866 36.6666 36.1333 36.6666Z" stroke="#52C5FA" stroke-width="1.8" stroke-linecap="round" stroke-linejoin="round"/>
</g>
<defs>
<filter id="filter0_i_7_840" x="0" y="0" width="60" height="49" filterUnits="userSpaceOnUse" color-interpolation-filters="sRGB">
<feFlood flood-opacity="0" result="BackgroundImageFix"/>
<feBlend mode="normal" in="SourceGraphic" in2="BackgroundImageFix" result="shape"/>
<feColorMatrix in="SourceAlpha" type="matrix" values="0 0 0 0 0 0 0 0 0 0 0 0 0 0 0 0 0 0 127 0" result="hardAlpha"/>
<feOffset dy="1"/>
<feGaussianBlur stdDeviation="3.5"/>
<feComposite in2="hardAlpha" operator="arithmetic" k2="-1" k3="1"/>
<feColorMatrix type="matrix" values="0 0 0 0 1 0 0 0 0 1 0 0 0 0 1 0 0 0 0.32 0"/>
<feBlend mode="overlay" in2="shape" result="effect1_innerShadow_7_840"/>
</filter>
<filter id="filter1_i_7_840" x="15.7667" y="13.7666" width="28.4667" height="25.8" filterUnits="userSpaceOnUse" color-interpolation-filters="sRGB">
<feFlood flood-opacity="0" result="BackgroundImageFix"/>
<feBlend mode="normal" in="SourceGraphic" in2="BackgroundImageFix" result="shape"/>
<feColorMatrix in="SourceAlpha" type="matrix" values="0 0 0 0 0 0 0 0 0 0 0 0 0 0 0 0 0 0 127 0" result="hardAlpha"/>
<feOffset dy="2"/>
<feGaussianBlur stdDeviation="1"/>
<feComposite in2="hardAlpha" operator="arithmetic" k2="-1" k3="1"/>
<feColorMatrix type="matrix" values="0 0 0 0 1 0 0 0 0 1 0 0 0 0 1 0 0 0 0.47 0"/>
<feBlend mode="overlay" in2="shape" result="effect1_innerShadow_7_840"/>
</filter>
<linearGradient id="paint0_linear_7_840" x1="30" y1="0" x2="30" y2="48" gradientUnits="userSpaceOnUse">
<stop stop-color="#242834"/>
<stop offset="1" stop-color="#1A1D26"/>
</linearGradient>
</defs>
</svg>
