<svg width="60" height="48" viewBox="0 0 60 48" fill="none" xmlns="http://www.w3.org/2000/svg">
<g filter="url(#filter0_i_7_865)">
<rect width="60" height="48" rx="4" fill="url(#paint0_linear_7_865)"/>
</g>
<rect x="0.5" y="0.5" width="59" height="47" rx="3.5" stroke="#52C5FA"/>
<g filter="url(#filter1_i_7_865)">
<path d="M36.6667 21.3333V18.6667C36.6667 14.9848 33.6819 12 30 12C26.3181 12 23.3334 14.9848 23.3334 18.6667V21.3333M30 27.3333V30M25.7334 36H34.2667C36.5069 36 37.627 36 38.4827 35.564C39.2353 35.1805 39.8472 34.5686 40.2307 33.816C40.6667 32.9603 40.6667 31.8402 40.6667 29.6V27.7333C40.6667 25.4931 40.6667 24.373 40.2307 23.5174C39.8472 22.7647 39.2353 22.1528 38.4827 21.7693C37.627 21.3333 36.5069 21.3333 34.2667 21.3333H25.7334C23.4932 21.3333 22.3731 21.3333 21.5174 21.7693C20.7648 22.1528 20.1528 22.7647 19.7693 23.5174C19.3334 24.373 19.3334 25.4931 19.3334 27.7333V29.6C19.3334 31.8402 19.3334 32.9603 19.7693 33.816C20.1528 34.5686 20.7648 35.1805 21.5174 35.564C22.3731 36 23.4932 36 25.7334 36Z" stroke="#52C5FA" stroke-width="1.8" stroke-linecap="round" stroke-linejoin="round"/>
</g>
<defs>
<filter id="filter0_i_7_865" x="0" y="0" width="60" height="49" filterUnits="userSpaceOnUse" color-interpolation-filters="sRGB">
<feFlood flood-opacity="0" result="BackgroundImageFix"/>
<feBlend mode="normal" in="SourceGraphic" in2="BackgroundImageFix" result="shape"/>
<feColorMatrix in="SourceAlpha" type="matrix" values="0 0 0 0 0 0 0 0 0 0 0 0 0 0 0 0 0 0 127 0" result="hardAlpha"/>
<feOffset dy="1"/>
<feGaussianBlur stdDeviation="3.5"/>
<feComposite in2="hardAlpha" operator="arithmetic" k2="-1" k3="1"/>
<feColorMatrix type="matrix" values="0 0 0 0 1 0 0 0 0 1 0 0 0 0 1 0 0 0 0.32 0"/>
<feBlend mode="overlay" in2="shape" result="effect1_innerShadow_7_865"/>
</filter>
<filter id="filter1_i_7_865" x="18.4333" y="11.1" width="23.1333" height="27.8" filterUnits="userSpaceOnUse" color-interpolation-filters="sRGB">
<feFlood flood-opacity="0" result="BackgroundImageFix"/>
<feBlend mode="normal" in="SourceGraphic" in2="BackgroundImageFix" result="shape"/>
<feColorMatrix in="SourceAlpha" type="matrix" values="0 0 0 0 0 0 0 0 0 0 0 0 0 0 0 0 0 0 127 0" result="hardAlpha"/>
<feOffset dy="2"/>
<feGaussianBlur stdDeviation="1"/>
<feComposite in2="hardAlpha" operator="arithmetic" k2="-1" k3="1"/>
<feColorMatrix type="matrix" values="0 0 0 0 1 0 0 0 0 1 0 0 0 0 1 0 0 0 0.47 0"/>
<feBlend mode="overlay" in2="shape" result="effect1_innerShadow_7_865"/>
</filter>
<linearGradient id="paint0_linear_7_865" x1="30" y1="0" x2="30" y2="48" gradientUnits="userSpaceOnUse">
<stop stop-color="#242834"/>
<stop offset="1" stop-color="#1A1D26"/>
</linearGradient>
</defs>
</svg>
