<svg width="16" height="16" viewBox="0 0 16 16" fill="none" xmlns="http://www.w3.org/2000/svg">
<mask id="path-1-inside-1_6_161" fill="white">
<path fill-rule="evenodd" clip-rule="evenodd" d="M2 0C1.08937 0 0.320885 0.608597 0.0790983 1.44124L14.5382 6.829C14.8512 6.94565 15.0588 7.24456 15.0588 7.57865V8.6768C15.0588 9.23465 14.5022 9.62123 13.9795 9.42645L0 4.21739V6.14749L14.5382 11.5647C14.8512 11.6814 15.0588 11.9803 15.0588 12.3144V14.0684C15.0588 14.4025 14.8512 14.7014 14.5382 14.8181L11.3662 16H14C15.1046 16 16 15.1046 16 14V2C16 0.895431 15.1046 0 14 0H2ZM1.68866 15.9759L8.26592 13.9561C9.01946 13.7247 9.01946 12.658 8.26591 12.4266L0 9.88832V14C0 14.9987 0.731956 15.8264 1.68866 15.9759Z"/>
</mask>
<path fill-rule="evenodd" clip-rule="evenodd" d="M2 0C1.08937 0 0.320885 0.608597 0.0790983 1.44124L14.5382 6.829C14.8512 6.94565 15.0588 7.24456 15.0588 7.57865V8.6768C15.0588 9.23465 14.5022 9.62123 13.9795 9.42645L0 4.21739V6.14749L14.5382 11.5647C14.8512 11.6814 15.0588 11.9803 15.0588 12.3144V14.0684C15.0588 14.4025 14.8512 14.7014 14.5382 14.8181L11.3662 16H14C15.1046 16 16 15.1046 16 14V2C16 0.895431 15.1046 0 14 0H2ZM1.68866 15.9759L8.26592 13.9561C9.01946 13.7247 9.01946 12.658 8.26591 12.4266L0 9.88832V14C0 14.9987 0.731956 15.8264 1.68866 15.9759Z" fill="#4ACDFE"/>
<path d="M0.0790983 1.44124L-0.209001 1.35758L-0.286682 1.62509L-0.0256523 1.72236L0.0790983 1.44124ZM14.5382 6.829L14.6429 6.54788L14.5382 6.829ZM13.9795 9.42645L13.8747 9.70756L13.9795 9.42645ZM0 4.21739L0.104751 3.93627L-0.3 3.78545V4.21739H0ZM0 6.14749H-0.3V6.35586L-0.104751 6.42861L0 6.14749ZM14.5382 11.5647L14.4334 11.8458L14.5382 11.5647ZM14.5382 14.8181L14.4334 14.5369L14.5382 14.8181ZM11.3662 16L11.2615 15.7189L11.3662 16.3V16ZM8.26592 13.9561L8.35398 14.2429L8.26592 13.9561ZM1.68866 15.9759L1.64233 16.2723L1.71063 16.283L1.77672 16.2627L1.68866 15.9759ZM8.26591 12.4266L8.35398 12.1399L8.26591 12.4266ZM0 9.88832L0.088066 9.60154L-0.3 9.48237V9.88832H0ZM0.367197 1.5249C0.57277 0.816967 1.2264 0.3 2 0.3V-0.3C0.952337 -0.3 0.0690001 0.400227 -0.209001 1.35758L0.367197 1.5249ZM-0.0256523 1.72236L14.4334 7.11011L14.6429 6.54788L0.183849 1.16012L-0.0256523 1.72236ZM14.4334 7.11011C14.6291 7.18302 14.7588 7.36984 14.7588 7.57865H15.3588C15.3588 7.11928 15.0734 6.70828 14.6429 6.54788L14.4334 7.11011ZM14.7588 7.57865V8.6768H15.3588V7.57865H14.7588ZM14.7588 8.6768C14.7588 9.02546 14.411 9.26707 14.0842 9.14533L13.8747 9.70756C14.5935 9.97539 15.3588 9.44385 15.3588 8.6768H14.7588ZM14.0842 9.14533L0.104751 3.93627L-0.104751 4.4985L13.8747 9.70756L14.0842 9.14533ZM0.3 6.14749V4.21739H-0.3V6.14749H0.3ZM14.6429 11.2836L0.104751 5.86638L-0.104751 6.42861L14.4334 11.8458L14.6429 11.2836ZM15.3588 12.3144C15.3588 11.855 15.0734 11.444 14.6429 11.2836L14.4334 11.8458C14.6291 11.9188 14.7588 12.1056 14.7588 12.3144H15.3588ZM15.3588 14.0684V12.3144H14.7588V14.0684H15.3588ZM14.6429 15.0992C15.0734 14.9388 15.3588 14.5278 15.3588 14.0684H14.7588C14.7588 14.2772 14.6291 14.464 14.4334 14.5369L14.6429 15.0992ZM11.471 16.2811L14.6429 15.0992L14.4334 14.5369L11.2615 15.7189L11.471 16.2811ZM14 15.7H11.3662V16.3H14V15.7ZM15.7 14C15.7 14.9389 14.9389 15.7 14 15.7V16.3C15.2703 16.3 16.3 15.2703 16.3 14H15.7ZM15.7 2V14H16.3V2H15.7ZM14 0.3C14.9389 0.3 15.7 1.06112 15.7 2H16.3C16.3 0.729745 15.2703 -0.3 14 -0.3V0.3ZM2 0.3H14V-0.3H2V0.3ZM8.17785 13.6694L1.60059 15.6891L1.77672 16.2627L8.35398 14.2429L8.17785 13.6694ZM8.17785 12.7134C8.64882 12.858 8.64881 13.5247 8.17785 13.6694L8.35398 14.2429C9.39011 13.9248 9.3901 12.458 8.35398 12.1399L8.17785 12.7134ZM-0.088066 10.1751L8.17785 12.7134L8.35398 12.1399L0.088066 9.60154L-0.088066 10.1751ZM0.3 14V9.88832H-0.3V14H0.3ZM1.73499 15.6795C0.922045 15.5524 0.3 14.8486 0.3 14H-0.3C-0.3 15.1487 0.541866 16.1003 1.64233 16.2723L1.73499 15.6795Z" fill="url(#paint0_linear_6_161)" style="mix-blend-mode:overlay" mask="url(#path-1-inside-1_6_161)"/>
<defs>
<linearGradient id="paint0_linear_6_161" x1="8" y1="0" x2="8" y2="1.37143" gradientUnits="userSpaceOnUse">
<stop stop-color="white" stop-opacity="0.48"/>
<stop offset="1" stop-color="white" stop-opacity="0"/>
</linearGradient>
</defs>
</svg>
