<svg width="60" height="48" viewBox="0 0 60 48" fill="none" xmlns="http://www.w3.org/2000/svg">
<g filter="url(#filter0_i_12_74)">
<rect width="60" height="48" rx="4" fill="url(#paint0_linear_12_74)"/>
</g>
<rect x="0.5" y="0.5" width="59" height="47" rx="3.5" stroke="#52C5FA"/>
<g filter="url(#filter1_i_12_74)">
<path d="M24.75 24H24.7617M30 24H30.0117M35.25 24H35.2617M30 34.5C35.799 34.5 40.5 29.799 40.5 24C40.5 18.201 35.799 13.5 30 13.5C24.201 13.5 19.5 18.201 19.5 24C19.5 25.3967 19.7727 26.7296 20.2677 27.9486C20.3625 28.1819 20.4099 28.2985 20.431 28.3928C20.4517 28.4851 20.4592 28.5533 20.4592 28.6478C20.4593 28.7445 20.4417 28.8497 20.4066 29.0602L19.7148 33.2111C19.6424 33.6458 19.6061 33.8631 19.6736 34.0203C19.7326 34.1578 19.8422 34.2674 19.9797 34.3264C20.1369 34.3939 20.3542 34.3576 20.7889 34.2852L24.9398 33.5934C25.1503 33.5583 25.2555 33.5407 25.3522 33.5408C25.4467 33.5408 25.5149 33.5483 25.6072 33.569C25.7015 33.5901 25.8181 33.6375 26.0514 33.7323C27.2704 34.2273 28.6033 34.5 30 34.5ZM25.3333 24C25.3333 24.3222 25.0722 24.5833 24.75 24.5833C24.4278 24.5833 24.1667 24.3222 24.1667 24C24.1667 23.6778 24.4278 23.4167 24.75 23.4167C25.0722 23.4167 25.3333 23.6778 25.3333 24ZM30.5833 24C30.5833 24.3222 30.3222 24.5833 30 24.5833C29.6778 24.5833 29.4167 24.3222 29.4167 24C29.4167 23.6778 29.6778 23.4167 30 23.4167C30.3222 23.4167 30.5833 23.6778 30.5833 24ZM35.8333 24C35.8333 24.3222 35.5722 24.5833 35.25 24.5833C34.9278 24.5833 34.6667 24.3222 34.6667 24C34.6667 23.6778 34.9278 23.4167 35.25 23.4167C35.5722 23.4167 35.8333 23.6778 35.8333 24Z" stroke="#52C5FA" stroke-width="1.8" stroke-linecap="round" stroke-linejoin="round"/>
</g>
<defs>
<filter id="filter0_i_12_74" x="0" y="0" width="60" height="49" filterUnits="userSpaceOnUse" color-interpolation-filters="sRGB">
<feFlood flood-opacity="0" result="BackgroundImageFix"/>
<feBlend mode="normal" in="SourceGraphic" in2="BackgroundImageFix" result="shape"/>
<feColorMatrix in="SourceAlpha" type="matrix" values="0 0 0 0 0 0 0 0 0 0 0 0 0 0 0 0 0 0 127 0" result="hardAlpha"/>
<feOffset dy="1"/>
<feGaussianBlur stdDeviation="3.5"/>
<feComposite in2="hardAlpha" operator="arithmetic" k2="-1" k3="1"/>
<feColorMatrix type="matrix" values="0 0 0 0 1 0 0 0 0 1 0 0 0 0 1 0 0 0 0.32 0"/>
<feBlend mode="overlay" in2="shape" result="effect1_innerShadow_12_74"/>
</filter>
<filter id="filter1_i_12_74" x="18.6" y="12.6001" width="22.8" height="24.7998" filterUnits="userSpaceOnUse" color-interpolation-filters="sRGB">
<feFlood flood-opacity="0" result="BackgroundImageFix"/>
<feBlend mode="normal" in="SourceGraphic" in2="BackgroundImageFix" result="shape"/>
<feColorMatrix in="SourceAlpha" type="matrix" values="0 0 0 0 0 0 0 0 0 0 0 0 0 0 0 0 0 0 127 0" result="hardAlpha"/>
<feOffset dy="2"/>
<feGaussianBlur stdDeviation="1"/>
<feComposite in2="hardAlpha" operator="arithmetic" k2="-1" k3="1"/>
<feColorMatrix type="matrix" values="0 0 0 0 1 0 0 0 0 1 0 0 0 0 1 0 0 0 0.47 0"/>
<feBlend mode="overlay" in2="shape" result="effect1_innerShadow_12_74"/>
</filter>
<linearGradient id="paint0_linear_12_74" x1="30" y1="0" x2="30" y2="48" gradientUnits="userSpaceOnUse">
<stop stop-color="#242834"/>
<stop offset="1" stop-color="#1A1D26"/>
</linearGradient>
</defs>
</svg>
